<svg xmlns="http://www.w3.org/2000/svg" width="560" height="910" viewBox="0 0 560 910" role="img" aria-labelledby="title desc"><title id="title">MatyanKass: real GitHub statistics in a DJ mixer</title><desc id="desc">Public GitHub data for MatyanKass, updated 11 OCT, 00:52 Kyiv time. 45 contributions and 6 active days in the last year. 3 public repositories, 0 stars and 1 followers.</desc><defs>
<linearGradient id="bg" x2="1" y2="1"><stop stop-color="#141021"/><stop offset="1" stop-color="#080710"/></linearGradient>
<linearGradient id="glass" x2="1" y2="1"><stop stop-color="#ffffff" stop-opacity=".06"/><stop offset="1" stop-color="#c084fc" stop-opacity=".025"/></linearGradient>
<linearGradient id="accent" x2="1" y2="1"><stop stop-color="#9333ea"/><stop offset=".5" stop-color="#c084fc"/><stop offset="1" stop-color="#e879f9"/></linearGradient>
<linearGradient id="bar" y1="1" y2="0" x2="0"><stop stop-color="#6d28d9"/><stop offset=".65" stop-color="#c084fc"/><stop offset="1" stop-color="#f0abfc"/></linearGradient>
<radialGradient id="disc"><stop stop-color="#161025"/><stop offset=".3" stop-color="#100c1c"/><stop offset="1" stop-color="#06050c"/></radialGradient>
<radialGradient id="cloud"><stop stop-color="#9333ea" stop-opacity=".23"/><stop offset="1" stop-color="#9333ea" stop-opacity="0"/></radialGradient>
<filter id="glow"><feGaussianBlur stdDeviation="3"/></filter>
</defs><style>text{font-family:'Segoe UI',Arial,sans-serif}.mono{font-family:Consolas,'Liberation Mono',monospace}.spin{animation:spin 18s linear infinite;transform-box:fill-box;transform-origin:center}.beat{animation:beat 2.8s ease-in-out infinite;transform-box:fill-box;transform-origin:center bottom}.orbit{animation:beat 4s ease-in-out infinite}.ship{animation:ship 12s ease-in-out infinite}.enemy{animation:enemy 4s ease-in-out infinite}.shot{animation:shot 4s linear infinite;transform-box:fill-box;transform-origin:center}@keyframes spin{to{transform:rotate(360deg)}}@keyframes beat{0%,100%{opacity:.6}50%{opacity:1}}@keyframes ship{0%,100%{transform:translateX(-60px)}50%{transform:translateX(60px)}}@keyframes enemy{0%,100%{transform:translateY(0)}50%{transform:translateY(6px)}}@keyframes shot{0%,15%{opacity:0;transform:translateY(0)}20%{opacity:1}70%,100%{transform:translateY(-115px);opacity:0}}@media(prefers-reduced-motion:reduce){.spin,.beat,.orbit,.ship,.enemy,.shot{animation:none}.shot{display:none}}</style><rect x=".5" y=".5" width="559" height="909" rx="22" fill="url(#bg)" stroke="#c084fc" stroke-opacity=".3"/><ellipse cx="448" cy="30" rx="280" ry="220" fill="url(#cloud)"/><text x="32" y="39" font-size="18" fill="#f5f2fb" class="mono" letter-spacing="1.6">GITHUB // MIXER</text><text x="528" y="39" font-size="10" fill="#c084fc" class="mono" text-anchor="end" letter-spacing="1">PUBLIC DATA</text><path d="M32 58H528" stroke="#c084fc" stroke-opacity=".15"/><g><circle cx="147" cy="169" r="90" fill="none" stroke="#c084fc" stroke-opacity=".16"/><circle cx="147" cy="169" r="78" fill="url(#disc)" stroke="#c084fc" stroke-opacity=".3"/><circle cx="147" cy="169" r="69" fill="none" stroke="#c084fc" stroke-opacity=".045"/><circle cx="147" cy="169" r="61" fill="none" stroke="#c084fc" stroke-opacity=".045"/><circle cx="147" cy="169" r="53" fill="none" stroke="#c084fc" stroke-opacity=".045"/><circle cx="147" cy="169" r="45" fill="none" stroke="#c084fc" stroke-opacity=".045"/><circle cx="147" cy="169" r="37" fill="none" stroke="#c084fc" stroke-opacity=".045"/><g class="spin"><circle cx="147" cy="169" r="74" fill="none" stroke="url(#accent)" stroke-width="2" stroke-dasharray="56.16 27.299999999999997 18.72 387.65999999999997"/><circle cx="147" cy="95" r="3" fill="#e879f9"/></g><text x="147" y="182" font-size="42" fill="#f5f2fb" font-weight="600" text-anchor="middle">45</text><text x="147" y="204.88" font-size="15" fill="#c084fc" class="mono" letter-spacing="1" text-anchor="middle">CONTRIBUTIONS</text><text x="147" y="289" font-size="17" fill="#b9b0d0" text-anchor="middle">LAST YEAR</text></g><g><circle cx="413" cy="169" r="90" fill="none" stroke="#c084fc" stroke-opacity=".16"/><circle cx="413" cy="169" r="78" fill="url(#disc)" stroke="#c084fc" stroke-opacity=".3"/><circle cx="413" cy="169" r="69" fill="none" stroke="#c084fc" stroke-opacity=".045"/><circle cx="413" cy="169" r="61" fill="none" stroke="#c084fc" stroke-opacity=".045"/><circle cx="413" cy="169" r="53" fill="none" stroke="#c084fc" stroke-opacity=".045"/><circle cx="413" cy="169" r="45" fill="none" stroke="#c084fc" stroke-opacity=".045"/><circle cx="413" cy="169" r="37" fill="none" stroke="#c084fc" stroke-opacity=".045"/><g class="spin"><circle cx="413" cy="169" r="74" fill="none" stroke="url(#accent)" stroke-width="2" stroke-dasharray="56.16 27.299999999999997 18.72 387.65999999999997"/><circle cx="413" cy="95" r="3" fill="#e879f9"/></g><text x="413" y="182" font-size="42" fill="#f5f2fb" font-weight="600" text-anchor="middle">6</text><text x="413" y="204.88" font-size="15" fill="#c084fc" class="mono" letter-spacing="1" text-anchor="middle">ACTIVE DAYS</text><text x="413" y="289" font-size="17" fill="#b9b0d0" text-anchor="middle">LAST YEAR</text></g><text x="32" y="308" font-size="17" fill="#c084fc" class="mono" letter-spacing="1">ACTIVITY CHANNEL / 28 DAYS</text><rect x="32.00" y="337" width="12.71" height="82" rx="3" fill="#c084fc" fill-opacity=".045"/><rect  style="animation-delay:0s" x="32.00" y="416" width="12.71" height="3" rx="3" fill="#31233e"><title>2026-09-13: 0 contributions</title></rect><rect x="49.71" y="337" width="12.71" height="82" rx="3" fill="#c084fc" fill-opacity=".045"/><rect  style="animation-delay:-0.35s" x="49.71" y="416" width="12.71" height="3" rx="3" fill="#31233e"><title>2026-09-14: 0 contributions</title></rect><rect x="67.43" y="337" width="12.71" height="82" rx="3" fill="#c084fc" fill-opacity=".045"/><rect  style="animation-delay:-0.7s" x="67.43" y="416" width="12.71" height="3" rx="3" fill="#31233e"><title>2026-09-15: 0 contributions</title></rect><rect x="85.14" y="337" width="12.71" height="82" rx="3" fill="#c084fc" fill-opacity=".045"/><rect  style="animation-delay:-1.0499999999999998s" x="85.14" y="416" width="12.71" height="3" rx="3" fill="#31233e"><title>2026-09-16: 0 contributions</title></rect><rect x="102.86" y="337" width="12.71" height="82" rx="3" fill="#c084fc" fill-opacity=".045"/><rect  style="animation-delay:-1.4s" x="102.86" y="416" width="12.71" height="3" rx="3" fill="#31233e"><title>2026-09-17: 0 contributions</title></rect><rect x="120.57" y="337" width="12.71" height="82" rx="3" fill="#c084fc" fill-opacity=".045"/><rect  style="animation-delay:0s" x="120.57" y="416" width="12.71" height="3" rx="3" fill="#31233e"><title>2026-09-18: 0 contributions</title></rect><rect x="138.29" y="337" width="12.71" height="82" rx="3" fill="#c084fc" fill-opacity=".045"/><rect  style="animation-delay:-0.35s" x="138.29" y="416" width="12.71" height="3" rx="3" fill="#31233e"><title>2026-09-19: 0 contributions</title></rect><rect x="156.00" y="337" width="12.71" height="82" rx="3" fill="#c084fc" fill-opacity=".045"/><rect  style="animation-delay:-0.7s" x="156.00" y="416" width="12.71" height="3" rx="3" fill="#31233e"><title>2026-09-20: 0 contributions</title></rect><rect x="173.71" y="337" width="12.71" height="82" rx="3" fill="#c084fc" fill-opacity=".045"/><rect  style="animation-delay:-1.0499999999999998s" x="173.71" y="416" width="12.71" height="3" rx="3" fill="#31233e"><title>2026-09-21: 0 contributions</title></rect><rect x="191.43" y="337" width="12.71" height="82" rx="3" fill="#c084fc" fill-opacity=".045"/><rect  style="animation-delay:-1.4s" x="191.43" y="416" width="12.71" height="3" rx="3" fill="#31233e"><title>2026-09-22: 0 contributions</title></rect><rect x="209.14" y="337" width="12.71" height="82" rx="3" fill="#c084fc" fill-opacity=".045"/><rect  style="animation-delay:0s" x="209.14" y="416" width="12.71" height="3" rx="3" fill="#31233e"><title>2026-09-23: 0 contributions</title></rect><rect x="226.86" y="337" width="12.71" height="82" rx="3" fill="#c084fc" fill-opacity=".045"/><rect  style="animation-delay:-0.35s" x="226.86" y="416" width="12.71" height="3" rx="3" fill="#31233e"><title>2026-09-24: 0 contributions</title></rect><rect x="244.57" y="337" width="12.71" height="82" rx="3" fill="#c084fc" fill-opacity=".045"/><rect  style="animation-delay:-0.7s" x="244.57" y="416" width="12.71" height="3" rx="3" fill="#31233e"><title>2026-09-25: 0 contributions</title></rect><rect x="262.29" y="337" width="12.71" height="82" rx="3" fill="#c084fc" fill-opacity=".045"/><rect  style="animation-delay:-1.0499999999999998s" x="262.29" y="416" width="12.71" height="3" rx="3" fill="#31233e"><title>2026-09-26: 0 contributions</title></rect><rect x="280.00" y="337" width="12.71" height="82" rx="3" fill="#c084fc" fill-opacity=".045"/><rect  style="animation-delay:-1.4s" x="280.00" y="416" width="12.71" height="3" rx="3" fill="#31233e"><title>2026-09-27: 0 contributions</title></rect><rect x="297.71" y="337" width="12.71" height="82" rx="3" fill="#c084fc" fill-opacity=".045"/><rect  style="animation-delay:0s" x="297.71" y="416" width="12.71" height="3" rx="3" fill="#31233e"><title>2026-09-28: 0 contributions</title></rect><rect x="315.43" y="337" width="12.71" height="82" rx="3" fill="#c084fc" fill-opacity=".045"/><rect  style="animation-delay:-0.35s" x="315.43" y="416" width="12.71" height="3" rx="3" fill="#31233e"><title>2026-09-29: 0 contributions</title></rect><rect x="333.14" y="337" width="12.71" height="82" rx="3" fill="#c084fc" fill-opacity=".045"/><rect class="beat" style="animation-delay:-0.7s" x="333.14" y="400.61290322580646" width="12.71" height="18.387096774193548" rx="3" fill="url(#bar)"><title>2026-09-30: 2 contributions</title></rect><rect x="350.86" y="337" width="12.71" height="82" rx="3" fill="#c084fc" fill-opacity=".045"/><rect class="beat" style="animation-delay:-1.0499999999999998s" x="350.86" y="398.4193548387097" width="12.71" height="20.580645161290324" rx="3" fill="url(#bar)"><title>2026-10-01: 3 contributions</title></rect><rect x="368.57" y="337" width="12.71" height="82" rx="3" fill="#c084fc" fill-opacity=".045"/><rect  style="animation-delay:-1.4s" x="368.57" y="416" width="12.71" height="3" rx="3" fill="#31233e"><title>2026-10-02: 0 contributions</title></rect><rect x="386.29" y="337" width="12.71" height="82" rx="3" fill="#c084fc" fill-opacity=".045"/><rect class="beat" style="animation-delay:0s" x="386.29" y="398.4193548387097" width="12.71" height="20.580645161290324" rx="3" fill="url(#bar)"><title>2026-10-03: 3 contributions</title></rect><rect x="404.00" y="337" width="12.71" height="82" rx="3" fill="#c084fc" fill-opacity=".045"/><rect class="beat" style="animation-delay:-0.35s" x="404.00" y="394.0322580645161" width="12.71" height="24.967741935483872" rx="3" fill="url(#bar)"><title>2026-10-04: 5 contributions</title></rect><rect x="421.71" y="337" width="12.71" height="82" rx="3" fill="#c084fc" fill-opacity=".045"/><rect  style="animation-delay:-0.7s" x="421.71" y="416" width="12.71" height="3" rx="3" fill="#31233e"><title>2026-10-05: 0 contributions</title></rect><rect x="439.43" y="337" width="12.71" height="82" rx="3" fill="#c084fc" fill-opacity=".045"/><rect  style="animation-delay:-1.0499999999999998s" x="439.43" y="416" width="12.71" height="3" rx="3" fill="#31233e"><title>2026-10-06: 0 contributions</title></rect><rect x="457.14" y="337" width="12.71" height="82" rx="3" fill="#c084fc" fill-opacity=".045"/><rect  style="animation-delay:-1.4s" x="457.14" y="416" width="12.71" height="3" rx="3" fill="#31233e"><title>2026-10-07: 0 contributions</title></rect><rect x="474.86" y="337" width="12.71" height="82" rx="3" fill="#c084fc" fill-opacity=".045"/><rect  style="animation-delay:0s" x="474.86" y="416" width="12.71" height="3" rx="3" fill="#31233e"><title>2026-10-08: 0 contributions</title></rect><rect x="492.57" y="337" width="12.71" height="82" rx="3" fill="#c084fc" fill-opacity=".045"/><rect class="beat" style="animation-delay:-0.35s" x="492.57" y="402.80645161290323" width="12.71" height="16.193548387096776" rx="3" fill="url(#bar)"><title>2026-10-09: 1 contributions</title></rect><rect x="510.29" y="337" width="12.71" height="82" rx="3" fill="#c084fc" fill-opacity=".045"/><rect class="beat" style="animation-delay:-0.7s" x="510.29" y="337" width="12.71" height="82" rx="3" fill="url(#bar)"><title>2026-10-10: 31 contributions</title></rect><text x="32" y="443" font-size="10" fill="#847aa0" class="mono">13 SEPT</text><text x="528" y="443" font-size="10" fill="#847aa0" class="mono" text-anchor="end">10 OCT</text><rect x="32" y="469" width="240" height="86" rx="14" fill="url(#glass)" stroke="#c084fc" stroke-opacity=".17" /><text x="50" y="503" font-size="38" fill="#f5f2fb" font-weight="600">3</text><text x="50" y="525" font-size="18" fill="#c084fc" class="mono" letter-spacing=".6">PUBLIC REPOS</text><text x="50" y="543" font-size="12" fill="#847aa0" >owned by this account</text><rect x="288" y="469" width="240" height="86" rx="14" fill="url(#glass)" stroke="#c084fc" stroke-opacity=".17" /><text x="306" y="503" font-size="38" fill="#f5f2fb" font-weight="600">0</text><text x="306" y="525" font-size="18" fill="#c084fc" class="mono" letter-spacing=".6">STARS RECEIVED</text><text x="306" y="543" font-size="12" fill="#847aa0" >public repositories</text><rect x="32" y="571" width="240" height="86" rx="14" fill="url(#glass)" stroke="#c084fc" stroke-opacity=".17" /><text x="50" y="605" font-size="38" fill="#f5f2fb" font-weight="600">42</text><text x="50" y="627" font-size="18" fill="#c084fc" class="mono" letter-spacing=".6">PUBLIC COMMITS</text><text x="50" y="645" font-size="12" fill="#847aa0" >last year</text><rect x="288" y="571" width="240" height="86" rx="14" fill="url(#glass)" stroke="#c084fc" stroke-opacity=".17" /><text x="306" y="605" font-size="38" fill="#f5f2fb" font-weight="600">2</text><text x="306" y="627" font-size="18" fill="#c084fc" class="mono" letter-spacing=".6">BEST STREAK</text><text x="306" y="645" font-size="12" fill="#847aa0" >consecutive days / last year</text><text x="32" y="702" font-size="16" fill="#c084fc" class="mono">LANGUAGE MIX / PUBLIC CODE BYTES</text><rect x="32" y="723" width="216.52833246260903" height="7" fill="#a855f7"><title>TypeScript: 43.655%</title></rect><rect x="248.52833246260903" y="723" width="205.7748279753038" height="7" fill="#e879f9"><title>Python: 41.487%</title></rect><rect x="454.3031604379128" y="723" width="40.17151391443337" height="7" fill="#7dd3fc"><title>JavaScript: 8.099%</title></rect><rect x="494.4746743523462" y="723" width="12.955221723956441" height="7" fill="#c084fc"><title>PowerShell: 2.612%</title></rect><rect x="507.4298960763026" y="723" width="11.152310462092418" height="7" fill="#f9a8d4"><title>CSS: 2.248%</title></rect><rect x="518.582206538395" y="723" width="9.324353414372194" height="7" fill="#8b8fa9"><title>HTML: 1.88%</title></rect><rect x="527.9065599527672" y="723" width="0.09344004723274751" height="7" fill="#a855f7"><title>Batchfile: 0.019%</title></rect><circle cx="36" cy="746" r="3" fill="#a855f7"/><text x="48" y="751" font-size="18" fill="#b9b0d0" >TypeScript 43.7%</text><circle cx="286" cy="746" r="3" fill="#e879f9"/><text x="298" y="751" font-size="18" fill="#b9b0d0" >Python 41.5%</text><circle cx="36" cy="772" r="3" fill="#7dd3fc"/><text x="48" y="777" font-size="18" fill="#b9b0d0" >JavaScript 8.1%</text><circle cx="286" cy="772" r="3" fill="#c084fc"/><text x="298" y="777" font-size="18" fill="#b9b0d0" >PowerShell 2.6%</text><circle cx="36" cy="798" r="3" fill="#f9a8d4"/><text x="48" y="803" font-size="18" fill="#b9b0d0" >CSS 2.2%</text><circle cx="286" cy="798" r="3" fill="#8b8fa9"/><text x="298" y="803" font-size="18" fill="#b9b0d0" >HTML 1.9%</text><text x="32" y="851" font-size="15" fill="#b9b0d0" class="mono">SYNC 11 OCT, 00:52 / KYIV</text><text x="32" y="876" font-size="13" fill="#847aa0" >Daily counts. Glow is decorative motion.</text></svg>